<svg xmlns="http://www.w3.org/2000/svg" width="102" height="96" viewBox="0 0 102 96" fill="none"><path d="M46.9382 1.10928C47.0677 3.08119 47.0389 5.06748 46.8518 7.02499C46.823 7.26968 46.8086 7.51437 46.7654 7.74466C46.751 7.85981 46.7367 7.97496 46.7223 8.09011C46.7079 8.26283 46.7655 7.81664 46.7223 8.07572C46.7079 8.14769 46.7079 8.23404 46.6935 8.30601C46.6215 8.79539 46.5352 9.28476 46.4488 9.77414C46.2617 10.7529 46.0171 11.7317 45.7292 12.6816C45.5853 13.1278 45.4413 13.574 45.283 14.0202C45.1967 14.2361 45.1247 14.452 45.0239 14.6679C45.0095 14.7111 44.952 14.7831 44.952 14.8406C44.952 14.6967 45.0383 14.6535 44.9808 14.7543C44.9232 14.8694 44.88 14.9846 44.8224 15.0997C44.477 15.8626 44.0596 16.5966 43.5991 17.2875C43.4983 17.4459 43.3832 17.6042 43.2681 17.7625C43.2105 17.8489 43.1385 17.9352 43.0809 18.0216C43.0521 18.0504 43.0234 18.0936 43.009 18.1223C43.1529 17.8633 43.0666 18.0504 43.0234 18.1079C42.7643 18.439 42.4765 18.7701 42.1886 19.0867C41.9008 19.389 41.6129 19.6768 41.2963 19.9647C41.1524 20.0942 40.9941 20.2238 40.8358 20.3533C40.7638 20.4109 40.6918 20.4685 40.6199 20.5261C40.5047 20.6124 40.8357 20.3533 40.663 20.4973C40.6055 20.5404 40.5623 20.5692 40.5047 20.6124C40.1305 20.8859 39.7419 21.145 39.3389 21.3753C38.9359 21.6056 38.5186 21.7783 38.1012 21.9942C38.1156 21.9798 38.3458 21.8934 38.1875 21.951C38.1299 21.9798 38.0724 21.9942 38.0148 22.023C37.8997 22.0662 37.7845 22.1093 37.655 22.1525C37.4391 22.2245 37.2232 22.2964 36.9929 22.354C36.5468 22.4836 36.0862 22.5699 35.6257 22.6275C35.381 22.6563 35.0931 22.9154 34.978 23.1169C34.8629 23.3328 34.8197 23.5631 34.8485 23.8078C34.9204 24.3259 35.3666 24.7433 35.9135 24.7433C36.9642 24.7289 38.0148 24.7289 39.0654 24.8009C39.3101 24.8153 39.5404 24.8441 39.7851 24.8729C39.7995 24.8729 40.0586 24.916 39.8858 24.8873C39.6987 24.8585 39.9578 24.9017 39.9866 24.9017C40.1161 24.9161 40.2456 24.9449 40.3752 24.9736C40.8933 25.0744 41.397 25.2039 41.8864 25.3623C41.9727 25.391 42.0735 25.4342 42.1598 25.463C42.203 25.4774 42.2606 25.5062 42.3038 25.5206C42.3901 25.5494 42.4765 25.6357 42.2462 25.4918C42.4189 25.6069 42.6348 25.6645 42.8219 25.7653C43.1817 25.9524 43.5271 26.1539 43.8438 26.3842C43.9301 26.4418 44.0165 26.4993 44.1028 26.5713C44.1316 26.6001 44.1748 26.6289 44.2036 26.6433C44.3475 26.744 44.146 26.6001 44.1316 26.5857C44.2756 26.7296 44.4626 26.8592 44.621 26.9887C44.9376 27.2766 45.2398 27.5645 45.5277 27.8811C45.6572 28.025 45.7867 28.169 45.9019 28.3129C45.9594 28.3849 46.0171 28.4568 46.089 28.5432C46.1754 28.6584 45.9307 28.3273 46.0602 28.5C46.1034 28.5576 46.1321 28.6008 46.1753 28.6584C46.42 28.9894 46.6359 29.3348 46.8518 29.6803C47.0677 30.0401 47.2692 30.4144 47.4563 30.7886C47.5427 30.9757 47.629 31.1628 47.7153 31.3499C47.7297 31.3931 47.7441 31.4363 47.7729 31.4651C47.6578 31.1916 47.7297 31.3499 47.7585 31.4219C47.8017 31.537 47.8449 31.6378 47.8881 31.753C48.2191 32.6166 48.4637 33.4946 48.6509 34.3869C48.7084 34.646 48.7516 34.8907 48.7948 35.1498C48.8092 35.2506 48.8235 35.3657 48.8523 35.4665C48.8667 35.5528 48.8811 35.6248 48.8811 35.7112C48.8811 35.668 48.8667 35.6248 48.8667 35.5816C48.8667 35.6392 48.8811 35.6824 48.8811 35.7399C48.9387 36.2581 48.9963 36.7619 49.0251 37.28C49.1834 39.655 49.0395 42.0443 48.8811 44.4048C48.8524 44.9374 49.3129 45.3979 49.8167 45.4699C50.3492 45.5419 50.8385 45.2108 50.9968 44.6927C52.1338 41.0799 52.2778 37.2656 53.1269 33.5953C53.314 32.7749 53.5299 31.9545 53.8177 31.1484C53.8753 30.9757 53.9473 30.803 54.0049 30.6446C54.0337 30.5583 54.0912 30.4719 54.12 30.3712C54.12 30.3856 54.0192 30.6159 54.0912 30.4575C54.1056 30.4144 54.1344 30.3568 54.1488 30.3136C54.3071 29.9682 54.4654 29.6371 54.6381 29.3061C54.9836 28.644 55.3865 28.0107 55.8327 27.4205C55.8615 27.3917 55.8903 27.3485 55.9046 27.3198C55.7607 27.5357 55.8039 27.4493 55.8471 27.3917C55.9047 27.3198 55.9623 27.2478 56.0198 27.1758C56.135 27.0319 56.2644 26.888 56.394 26.744C56.6386 26.4705 56.8978 26.2115 57.1568 25.9812C57.3151 25.8372 57.459 25.7077 57.6317 25.5782C57.6605 25.5494 57.6893 25.535 57.7325 25.5062C57.4735 25.7077 57.6605 25.5638 57.7037 25.5206C57.7901 25.463 57.862 25.4054 57.9484 25.3479C58.265 25.132 58.5961 24.9305 58.9415 24.7577C59.0278 24.7146 59.1286 24.6714 59.2149 24.6282C59.2581 24.6138 59.2869 24.5994 59.3301 24.585C59.5316 24.4986 59.1142 24.6714 59.3013 24.5994C59.4884 24.5274 59.6755 24.4555 59.877 24.3979C60.0785 24.3403 60.2656 24.2827 60.4671 24.2396C60.5534 24.2252 60.6542 24.1964 60.7405 24.182C60.8269 24.1676 61.2298 24.11 60.8556 24.1532C61.1435 24.11 61.417 24.0668 61.6185 23.8366C61.7768 23.6638 61.8776 23.4623 61.9207 23.2176C61.9927 22.7282 61.676 22.1381 61.1435 22.0374C60.7261 21.951 60.3088 21.8502 59.8914 21.7207C59.7043 21.6631 59.5315 21.5912 59.3444 21.5336C59.2437 21.4904 59.143 21.4472 59.0422 21.4184C59.3733 21.548 58.999 21.3897 58.9127 21.3609C58.1499 21.001 57.4159 20.5692 56.7394 20.0655C56.7107 20.0367 56.6675 20.0079 56.6387 19.9935C56.4947 19.8783 56.6962 20.0367 56.7106 20.0511C56.6387 19.9791 56.538 19.9215 56.4516 19.8496C56.2789 19.7056 56.1205 19.5761 55.9622 19.4322C55.6456 19.1443 55.3289 18.842 55.0411 18.511C54.7532 18.1943 54.4798 17.8776 54.2064 17.5466C54.1776 17.5034 54.1488 17.4603 54.1056 17.4171C54.12 17.4315 54.2639 17.6186 54.1488 17.4746C54.0768 17.3883 54.0192 17.3019 53.9473 17.2156C53.8177 17.0428 53.6882 16.8557 53.5731 16.683C53.0982 15.9777 52.6807 15.2293 52.3065 14.4664C52.2202 14.2793 52.1338 14.1066 52.0475 13.9195C52.0187 13.8763 52.0043 13.8187 51.9899 13.7755C51.918 13.6172 52.0187 13.8331 52.0187 13.8475C51.9755 13.7179 51.9179 13.6028 51.8748 13.4877C51.7164 13.099 51.5725 12.696 51.4286 12.293C50.8241 10.5226 50.3779 8.69464 50.0181 6.85227C49.8166 5.83034 49.6296 4.79401 49.4713 3.75768C49.3993 3.2683 49.3273 2.79332 49.2554 2.30395C49.2266 2.05926 49.1834 1.82896 49.1546 1.58427C49.1402 1.49791 49.0826 1.09489 49.1402 1.45473C49.1258 1.32519 49.1114 1.21004 49.097 1.0805C49.0539 0.778239 48.9963 0.533543 48.7804 0.317642C48.5933 0.130527 48.2911 -0.0134009 48.0176 0.000992507C47.7441 0.015386 47.4419 0.10174 47.2548 0.317642C47.0677 0.547937 46.895 0.835806 46.9382 1.10928C47.4419 4.89476 49.1834 12.365 49.1834 12.365L49.4713 22.354C49.4713 22.354 58.4953 23.779 60.5535 24.1676C60.6542 23.4623 60.7406 22.757 60.8413 22.0518C59.949 22.1669 59.1286 22.3972 58.2938 22.757C57.5598 23.0737 55.8327 23.3726 55.8327 23.3726L49.4399 21.2671L49.8167 31.753C49.8167 31.753 50.5075 35.8839 50.2196 37.7982C49.903 39.9572 49.5719 42.1162 48.9099 44.2033C49.6151 44.304 50.3204 44.3904 51.0256 44.4912C51.2991 40.2307 50.1045 31.6666 50.1045 31.6666V15.9131C50.1045 15.9131 38.3602 22.5987 35.9135 22.6275C36.0143 23.3328 36.1006 24.038 36.2014 24.7433C39.8283 24.2396 51.9899 20.4973 51.9899 20.4973C51.9899 20.4973 48.4062 11.8036 48.8956 7.91739C49.1834 5.65762 49.2409 3.38344 49.0826 1.12367C49.0394 0.562327 48.6077 0.0153754 48.0032 0.0441623C47.4563 0.0585558 46.895 0.504756 46.9382 1.10928Z" fill="#DFB545"></path><path d="M6.97001 30.3716C7.21469 31.4511 7.43057 32.545 7.61767 33.6389C7.71842 34.1714 7.80482 34.704 7.87678 35.2365C7.91996 35.51 7.96311 35.7691 7.99189 36.0426C8.00629 36.1577 8.02065 36.2873 8.03504 36.4024C8.06383 36.6039 8.03504 36.4168 8.03504 36.388C8.04943 36.4744 8.06386 36.5607 8.06386 36.6615C8.35171 38.8349 8.52439 41.0083 8.61074 43.1961C8.65392 44.1317 8.65398 45.0529 8.59641 45.9885C8.58201 46.2044 8.56756 46.4203 8.53878 46.6362C8.52439 46.7513 8.51002 46.8664 8.49563 46.9816C8.48124 47.0967 8.52441 47.1831 8.49563 46.9528C8.51002 47.0248 8.46682 47.1111 8.46682 47.1831C8.39485 47.6293 8.3085 48.0611 8.17897 48.4929C8.1214 48.7088 8.04945 48.9103 7.97749 49.1262C7.9487 49.2126 7.89117 49.3133 7.87678 49.3997C7.93435 49.1838 7.93431 49.2846 7.90552 49.3421C7.87674 49.4141 7.84794 49.4717 7.81916 49.5436C7.61766 49.961 7.3874 50.3497 7.11394 50.7239C7.04198 50.8103 6.98442 50.911 6.91246 50.9974C6.92685 50.9686 7.05641 50.8103 6.94127 50.9542C6.91249 50.9974 6.88367 51.0406 6.84049 51.0693C6.69657 51.2565 6.53823 51.4436 6.37991 51.6307C6.07767 51.9761 5.74668 52.3216 5.41565 52.6526C5.05584 53.0125 4.6816 53.3435 4.293 53.6746C4.0915 53.8473 3.89004 54.02 3.67415 54.1783C3.63097 54.2215 3.5734 54.2647 3.53023 54.2935C3.50144 54.3079 3.32873 54.4518 3.45826 54.3511C3.60219 54.2503 3.40069 54.3942 3.3863 54.4086C3.32873 54.4518 3.2568 54.495 3.19923 54.5526C2.33568 55.1859 1.44334 55.776 0.536619 56.3373C0.148022 56.582 -0.111099 57.1002 0.0472185 57.5608C0.191143 57.9926 0.608553 58.3812 1.0835 58.3524C1.99023 58.2948 2.89696 58.2517 3.81807 58.2949C4.42256 58.3237 5.02704 58.3812 5.61713 58.4532C5.94816 58.482 6.26477 58.5108 6.59579 58.5395C6.69654 58.5395 6.7973 58.5539 6.89805 58.5683C6.92684 58.5683 6.94123 58.5683 6.97001 58.5827C7.08515 58.5971 7.05635 58.5971 6.88364 58.5683C6.91243 58.5827 6.98445 58.5827 7.01323 58.5827C7.24351 58.6259 7.47376 58.6691 7.70404 58.7411C7.90554 58.7986 8.10705 58.8706 8.29415 58.9426C8.35172 58.957 8.39491 58.9857 8.45248 59.0001C8.59641 59.0577 8.19337 58.885 8.40926 58.9857C8.5244 59.0433 8.62519 59.0865 8.74033 59.1441C9.14332 59.3456 9.51751 59.5759 9.87732 59.835C9.9205 59.8637 9.96366 59.9069 10.0068 59.9357C10.1652 60.0509 9.96368 59.9069 9.94928 59.8925C9.99246 59.9645 10.1508 60.0509 10.2083 60.1084C10.3954 60.2668 10.5682 60.4251 10.7409 60.5834C11.0719 60.9001 11.4029 61.2455 11.6908 61.591C11.8347 61.7637 11.9786 61.9364 12.1082 62.1091C11.9642 61.9076 12.2665 62.3106 12.1082 62.1091C12.1369 62.1523 12.1657 62.1811 12.1945 62.2243C12.2809 62.3394 12.3672 62.4546 12.4392 62.5697C12.7126 62.9583 12.9717 63.347 13.2163 63.75C13.7489 64.628 14.2382 65.5492 14.6844 66.4703C14.9291 66.9741 15.1737 67.4923 15.404 67.996C15.4616 68.1112 15.5048 68.2263 15.5623 68.3415C15.5911 68.3991 15.6199 68.471 15.6487 68.5286C15.7207 68.7157 15.6487 68.543 15.6343 68.4998C15.7638 68.7877 15.8646 69.0755 15.9797 69.3634C16.9152 71.7239 17.6349 74.1565 18.1386 76.6465C18.2393 77.1791 18.8295 77.4813 19.3188 77.4238C19.8945 77.3518 20.1967 76.9056 20.2543 76.3587C20.758 72.0262 19.6642 67.7226 19.9232 63.3757C19.9376 63.0303 19.9808 62.6849 20.0096 62.3538C20.024 62.2674 20.0384 62.1811 20.0384 62.0947C20.0528 61.9508 19.9952 62.397 20.024 62.1811C20.024 62.1379 20.0384 62.1091 20.0384 62.0659C20.0672 61.8788 20.0959 61.6917 20.1247 61.5046C20.2543 60.7705 20.427 60.0365 20.6285 59.3312C20.7436 58.957 20.8587 58.5827 20.9883 58.2085C21.0458 58.0358 21.1035 57.8775 21.1754 57.7191C21.2042 57.6328 21.2473 57.5464 21.2761 57.46C21.3481 57.3017 21.2474 57.532 21.233 57.5464C21.2618 57.4888 21.2761 57.4313 21.3049 57.3737C21.6072 56.6972 21.9526 56.0351 22.37 55.4162C22.4707 55.2578 22.5859 55.0995 22.701 54.9412C22.7154 54.9124 22.8449 54.7541 22.7154 54.9124C22.6002 55.0707 22.7298 54.898 22.7586 54.8692C22.8162 54.7972 22.8737 54.7253 22.9457 54.6533C23.1903 54.3654 23.4638 54.092 23.7517 53.8473C23.8236 53.7753 23.91 53.7177 23.9819 53.6602C24.0827 53.5738 23.7804 53.8041 23.8956 53.7321C23.9388 53.7033 23.9819 53.6746 24.0251 53.6314C24.1834 53.5306 24.3274 53.4299 24.5001 53.3291C24.6584 53.2428 24.8167 53.1564 24.975 53.0844C25.0038 53.07 25.1765 52.9981 24.9894 53.07C24.8167 53.142 24.9606 53.0844 25.0038 53.07C25.1046 53.0269 25.2053 52.9981 25.306 52.9693C25.7378 52.8254 26.1264 52.4079 26.0976 51.9329C26.0688 51.4436 25.781 51.055 25.306 50.8966C23.4638 50.2777 21.5352 50.0186 19.6786 49.4285C19.4627 49.3565 19.2468 49.2846 19.031 49.1982C18.9878 49.1838 18.9445 49.1694 18.9014 49.155C18.8726 49.1406 18.6855 49.0399 18.8438 49.1262C19.0021 49.2126 18.815 49.1118 18.7862 49.0974C18.7287 49.0687 18.6567 49.0399 18.5992 49.0111C18.1818 48.824 17.7932 48.5937 17.419 48.3346C17.3614 48.2914 17.3038 48.2482 17.2462 48.2194C17.1167 48.1331 17.2751 48.2626 17.3039 48.2626C17.2607 48.277 17.0735 48.0755 17.0303 48.0323C16.8432 47.8596 16.6562 47.6869 16.4835 47.4998C16.3395 47.3414 16.1956 47.1687 16.0517 46.996C15.9797 46.9096 15.9078 46.8233 15.8358 46.7369C16.0229 46.9528 15.9078 46.8233 15.8646 46.7657C15.8214 46.7081 15.7783 46.6362 15.7207 46.5786C15.2026 45.8733 14.7707 45.1249 14.3821 44.3476C14.2814 44.1461 14.1951 43.959 14.1087 43.7575C14.0655 43.6711 14.0224 43.5848 13.9936 43.484C13.9648 43.4408 13.9504 43.3832 13.9216 43.3401C13.8353 43.1386 14.008 43.5416 13.9216 43.3545C13.7489 42.937 13.5905 42.5052 13.4322 42.0878C12.7846 40.303 12.2808 38.4607 11.7195 36.6471C10.9423 34.2002 10.0356 31.7965 8.85544 29.5223C8.59638 29.0186 7.848 28.8315 7.37304 29.1337C6.85492 29.4648 6.71096 30.0693 6.98442 30.6162C7.27227 31.1632 7.54575 31.7245 7.80482 32.2859C7.91996 32.545 8.04948 32.8041 8.15022 33.0631C8.13583 33.0343 8.06386 32.8472 8.13582 33.0344C8.1646 33.0919 8.1934 33.1639 8.22219 33.2215C8.27976 33.3654 8.33728 33.5093 8.39485 33.6389C8.79784 34.6464 9.15767 35.6684 9.4887 36.7047C10.0932 38.5614 10.6113 40.447 11.2446 42.2893C11.8491 44.0453 12.5831 45.7869 13.6338 47.327C14.1951 48.1475 14.3821 54.4086 14.3821 54.4086L16.4835 57.3737C16.4835 57.3737 22.6435 52.2352 24.716 52.9261C24.716 52.2352 24.716 51.5443 24.716 50.839C21.5784 51.8466 18.9014 52.4799 17.9083 55.4162C17.3902 56.9275 14.8975 53.3291 14.7392 54.9124C14.5377 56.9563 17.7356 66.7006 17.9083 68.7445C18.1098 71.2634 18.3545 73.7822 18.0666 76.3011C18.7719 76.2003 19.4771 76.114 20.1823 76.0132C19.7218 73.7534 19.0741 71.5224 18.2681 69.3634C17.4477 67.19 18.5848 64.5848 17.419 62.5697C16.4259 60.8713 15.8546 54.3367 14.329 53.0844C13.4942 52.4079 9.86292 52.3216 8.85544 51.9329C7.96311 51.5731 7.07077 56.3517 6.12087 56.2654C5.43003 56.2078 4.75361 56.1215 4.06278 56.0783C3.04091 56.0207 2.03341 56.0639 1.01154 56.1214C1.19864 56.7979 1.37133 57.46 1.55843 58.1365C3.25674 57.0858 6.16406 58.1797 7.64649 56.8123C9.11452 55.445 17.0303 56.8123 17.0303 56.8123L12.7001 44.6578C12.7001 44.6578 10.5249 39.5546 10.2659 37.3812C9.96363 34.8191 9.53186 32.2571 8.97055 29.7382C8.84102 29.1913 8.17901 28.8171 7.64649 28.9898C7.14275 29.2345 6.82609 29.7814 6.97001 30.3716Z" fill="#DFB545"></path><path d="M63.5874 59.3596C63.7889 60.1512 63.9473 60.9429 64.0624 61.7633C64.048 61.6626 64.0336 61.5762 64.0192 61.4754C64.2351 63.0731 64.2639 64.714 64.048 66.3116C64.0624 66.2109 64.0767 66.1245 64.0911 66.0238C63.9184 67.3192 63.5874 68.5858 63.0837 69.7805C63.1268 69.6941 63.1557 69.6078 63.1988 69.5214C62.9542 70.0971 62.6807 70.6585 62.3497 71.191C62.1914 71.4645 62.0043 71.738 61.8172 71.9971C61.7308 72.1122 61.6445 72.2274 61.5581 72.3425C61.7884 72.0402 61.6013 72.2849 61.5437 72.3569C61.4861 72.4289 61.4285 72.5008 61.371 72.5584C60.968 73.0478 60.5074 73.494 60.0325 73.9114C59.9174 74.0121 59.7878 74.1129 59.6727 74.2137C59.6007 74.2712 59.356 74.4583 59.6583 74.228C59.5863 74.2712 59.5288 74.3288 59.4568 74.3864C59.1833 74.5879 58.8955 74.775 58.6077 74.9621C58.0607 75.2932 57.5138 75.581 56.9237 75.8257C57.0101 75.7825 57.0964 75.7538 57.1827 75.7106C56.7654 75.8833 56.348 76.056 55.9306 76.2431C55.6428 76.3727 55.3694 76.4878 55.1535 76.7037C54.6641 77.1643 54.7504 77.9559 55.2542 78.3446C55.5132 78.5461 55.8587 78.6037 56.1609 78.69C56.6791 78.8483 57.1972 79.0355 57.7009 79.2514C57.6145 79.2082 57.5282 79.1794 57.4419 79.1362C58.8091 79.7263 60.1332 80.4604 61.3134 81.3528C61.3422 81.3816 61.371 81.396 61.3998 81.4248C61.1551 81.2377 61.2558 81.324 61.3134 81.3528C61.3854 81.4104 61.4429 81.4536 61.5149 81.5111C61.6444 81.6119 61.774 81.727 61.8891 81.8278C62.105 82.0293 62.3209 82.2308 62.5224 82.4611C62.6231 82.5618 62.7095 82.677 62.8102 82.7921C62.8534 82.8497 62.8966 82.9073 62.9397 82.9649C62.9829 83.0224 63.0549 83.1232 62.8534 82.8641C62.8822 82.9073 62.911 82.9361 62.9397 82.9793C63.1124 83.2096 63.2852 83.4542 63.4291 83.7133C63.8033 84.3035 64.1055 84.9368 64.3934 85.5845C64.3502 85.4981 64.3215 85.4118 64.2783 85.3254C65.3145 87.8011 65.7894 90.4639 66.25 93.0979C66.3651 93.8031 66.4947 94.5084 66.6242 95.2137C66.6674 95.4584 66.9121 95.7463 67.1136 95.8614C67.3294 95.9766 67.5598 96.0197 67.8044 95.9909C68.337 95.919 68.7256 95.4728 68.7399 94.9258C68.7831 93.7312 68.8263 92.5365 68.8695 91.3275C68.9126 90.176 68.9126 89.0101 69.0709 87.8586C69.0566 87.9594 69.0422 88.0458 69.0278 88.1465C69.1717 87.1534 69.3876 86.1602 69.6466 85.1958C69.7762 84.7209 69.9201 84.2459 70.064 83.7709C70.1935 83.3823 70.3087 82.9793 70.467 82.5906C70.4239 82.677 70.395 82.7634 70.3519 82.8497C70.5534 82.3891 70.8125 81.9573 71.1147 81.5543C71.1579 81.4967 71.201 81.4392 71.2442 81.3672C71.345 81.2376 71.0571 81.5975 71.2154 81.396C71.3162 81.2664 71.4169 81.1513 71.5177 81.0217C71.7048 80.7915 71.9063 80.5756 72.1078 80.3596C72.5395 79.9135 73.0001 79.4816 73.4751 79.0642C73.5902 78.9635 73.7053 78.8771 73.8205 78.7764C73.878 78.7332 73.9356 78.69 73.9932 78.6324C74.022 78.6036 74.0507 78.5749 74.0939 78.5605C74.0507 78.5893 73.8781 78.7332 74.0076 78.618C74.2379 78.4453 74.4825 78.2726 74.7128 78.0999C75.1878 77.7832 75.6771 77.481 76.2096 77.2651C76.1233 77.3082 76.0369 77.337 75.9506 77.3802C75.9938 77.3658 76.0369 77.3514 76.0801 77.3226C76.3392 77.2219 76.5838 77.0779 76.7278 76.8333C76.8429 76.6174 76.8861 76.3871 76.8573 76.1424C76.7853 75.6098 76.3392 75.2068 75.7923 75.2068C75.5476 75.2068 75.3029 75.1924 75.0726 75.1636C75.1734 75.178 75.2597 75.1924 75.3605 75.2068C74.8855 75.1348 74.4105 75.0053 73.9644 74.8182C74.0507 74.8614 74.1371 74.8901 74.2235 74.9333C73.95 74.8182 73.6909 74.6886 73.4462 74.5303C73.3167 74.4583 73.2016 74.372 73.0721 74.3C73.0145 74.2568 72.9425 74.2136 72.8849 74.1705C72.8562 74.1561 72.8274 74.1273 72.7986 74.1129C72.7842 74.0985 72.7698 74.0841 72.7554 74.0841C72.6547 73.9977 72.8993 74.1992 72.8849 74.1849C72.3956 73.7818 71.935 73.35 71.5033 72.8751C71.4025 72.7455 71.2874 72.6304 71.1867 72.5008C71.1435 72.4433 71.0859 72.3713 71.0427 72.3137C70.9276 72.1698 71.1579 72.4577 71.1147 72.4001C71.0859 72.3569 71.0571 72.3281 71.0283 72.2849C70.8124 72.0115 70.6253 71.7236 70.4238 71.4357C70.0208 70.8312 69.6611 70.1979 69.3301 69.5502C68.9415 68.8017 68.5816 68.0245 68.2506 67.2472C68.2938 67.3336 68.3225 67.4199 68.3657 67.5063C67.4014 65.2177 66.653 62.8284 66.0341 60.4103C65.8902 59.849 65.7607 59.302 65.6312 58.7407C65.5016 58.1937 64.8395 57.8195 64.307 57.9922C63.7601 58.2225 63.4435 58.7695 63.5874 59.3596C63.8896 60.6694 64.2207 61.9792 64.6093 63.2746C65.0554 64.7859 65.5736 66.2972 66.1637 67.7654C66.797 69.3055 65.1418 75.4803 66.0341 76.8908C66.8257 78.1575 70.136 74.7462 71.3018 75.6818C71.8631 76.128 72.4532 76.5454 73.1152 76.8333C73.8493 77.1499 74.5689 77.3514 75.3749 77.4234C75.5332 77.4378 75.6915 77.4378 75.8354 77.4378C75.7347 76.7325 75.6483 76.0272 75.5476 75.3219C74.3674 75.7825 71.3018 74.9621 71.3018 74.9621C71.3018 74.9621 67.6161 74.4139 66.8389 75.407C66.4503 75.8964 67.1136 80.8634 66.8257 81.4248C66.4947 82.0869 65.718 82.7234 65.5021 83.4287C64.9839 85.1415 66.9552 87.0526 66.8257 88.8374C66.7537 89.8449 66.7394 90.8669 66.7106 91.8744C66.6818 92.9107 66.6386 93.9327 66.6098 94.969C67.315 94.8683 68.0203 94.7819 68.7255 94.6811C68.2074 91.8168 67.8188 88.9094 66.8977 86.1458C66.4227 84.7497 68.5457 75.3219 67.6821 74.1129C67.2504 73.494 64.6863 75.8257 64.6863 75.8257C64.6863 75.8257 68.3024 75.6674 67.5828 75.2068C66.7912 74.6886 58.9242 77.2097 58.9242 77.2097C58.9242 77.2097 57.96 77.0779 57.4419 76.8908C57.0245 76.7469 56.6071 76.6318 56.1897 76.5022C56.276 76.5454 56.3624 76.5742 56.4488 76.6174C56.5783 76.7469 56.6934 76.862 56.8229 76.9916C56.8661 77.0779 56.8949 77.1643 56.9381 77.2507C56.9525 77.3514 56.9669 77.4378 56.9813 77.5385C56.9669 77.6393 56.9525 77.7257 56.9381 77.8264C56.8949 77.9128 56.8661 77.9991 56.8229 78.0855C56.7366 78.215 56.6215 78.3734 56.4919 78.4309C56.5207 78.4165 56.5351 78.4021 56.5639 78.3878C56.6359 78.3446 56.7078 78.3158 56.7798 78.2726C56.9813 78.1718 57.1972 78.0855 57.413 77.9991C57.3267 78.0423 57.2404 78.0711 57.154 78.1143C57.7441 77.8696 58.9242 77.3226 58.9242 77.3226C58.9242 77.3226 61.2271 77.9847 61.8172 77.5385C63.0693 76.5742 66.2644 77.8264 67.1136 76.5022C68.7543 73.9834 66.3364 67.1321 66.3508 64.1526C66.3508 62.3678 66.1061 60.5687 65.6743 58.8414C65.5304 58.2945 64.8972 57.9059 64.3502 58.093C63.7745 58.2225 63.4291 58.7695 63.5874 59.3596Z" fill="#DFB545"></path><path d="M78.176 21.174C78.2912 21.7065 78.3919 22.2391 78.4783 22.7716C78.5214 23.0307 78.5646 23.3042 78.6078 23.5777C78.6222 23.664 78.6941 24.067 78.6365 23.7504C78.6653 23.9087 78.6798 24.067 78.6942 24.211C78.8237 25.3049 78.9244 26.4132 78.982 27.5215C79.0971 29.7525 79.0827 31.9978 78.9244 34.2144C78.8812 34.7614 78.838 35.3083 78.7949 35.8697C78.7661 36.1144 78.7517 36.3734 78.7229 36.6181C78.7085 36.7333 78.6941 36.8484 78.6797 36.978C78.6797 37.0355 78.6653 37.0931 78.6653 37.1363C78.651 37.2227 78.6654 37.1795 78.6797 37.0068C78.6797 37.0499 78.6653 37.0931 78.6653 37.1363C78.5358 38.0575 78.3343 38.9643 78.0896 39.8567C77.9601 40.3028 77.8162 40.7491 77.6579 41.1809C77.5715 41.3968 77.4995 41.6127 77.4132 41.8286C77.3988 41.8861 77.37 41.9293 77.3556 41.9869C77.442 41.7134 77.3988 41.8717 77.37 41.9437C77.3125 42.0588 77.2693 42.1884 77.2117 42.3035C76.8231 43.1528 76.3769 43.9588 75.8444 44.736C75.7005 44.9519 75.5422 45.1678 75.3839 45.3694C75.3407 45.4269 75.2543 45.4989 75.427 45.3118C75.3839 45.3693 75.3263 45.4269 75.2831 45.4845C75.1968 45.5853 75.1248 45.686 75.0384 45.7868C74.7074 46.1754 74.362 46.5352 73.9878 46.8951C73.8007 47.0678 73.6136 47.2405 73.4121 47.4132C73.3113 47.4996 73.1962 47.5716 73.1098 47.6579C73.2969 47.4708 73.225 47.5715 73.1531 47.6291C73.0955 47.6723 73.0379 47.7155 72.9659 47.7587C72.5485 48.0609 72.1024 48.3488 71.6418 48.5935C71.2389 48.8094 71.0085 49.3707 71.1524 49.8169C71.21 49.9897 71.2964 50.1624 71.426 50.2919C71.5843 50.4646 71.9441 50.6374 72.1887 50.6086C73.153 50.4934 74.1173 50.4359 75.0816 50.4646C75.5566 50.479 76.0171 50.5078 76.4921 50.551C76.6072 50.5654 76.7367 50.5798 76.8519 50.5942C76.9382 50.6086 77.37 50.6661 76.9958 50.6086C77.2405 50.6518 77.4852 50.6805 77.7298 50.7237C78.6653 50.882 79.6008 51.1123 80.5076 51.4002C80.9681 51.5441 81.4287 51.7025 81.8748 51.8896C81.9756 51.9328 82.0619 51.9616 82.1627 52.0047C82.2203 52.0335 82.2779 52.0479 82.3354 52.0767C82.0332 51.9615 82.2346 52.0335 82.3066 52.0623C82.5369 52.1631 82.7528 52.2638 82.9831 52.3646C83.861 52.782 84.7102 53.2426 85.5162 53.7607C85.9192 54.0198 86.3078 54.2789 86.682 54.5668C86.7827 54.6387 86.8834 54.7107 86.9842 54.7827C87.0273 54.8259 87.0849 54.8546 87.1281 54.8978C86.8978 54.7251 86.9986 54.7971 87.0561 54.8403C87.272 55.013 87.4736 55.1713 87.675 55.344C88.3947 55.9485 89.0855 56.6106 89.7187 57.3015C90.0498 57.6614 90.3664 58.0356 90.6831 58.4242C90.7406 58.5106 90.8126 58.5825 90.8701 58.6689C90.6399 58.3954 90.9133 58.7265 90.9565 58.7985C91.1004 59 91.2444 59.2015 91.3883 59.403C91.9928 60.281 92.5397 61.2021 93.0003 62.1521C93.1154 62.3968 93.2305 62.6415 93.3313 62.8718C93.4176 63.0733 93.2305 62.6271 93.3169 62.843C93.3456 62.915 93.3744 63.0013 93.4032 63.0733C93.4464 63.1884 93.4896 63.3036 93.5327 63.4187C93.7342 63.9369 93.907 64.4695 94.0509 65.002C94.2092 65.549 94.8281 65.9376 95.375 65.7505C95.6341 65.6641 95.8931 65.5058 96.0227 65.2611C96.1666 64.9876 96.181 64.7286 96.1378 64.4263C96.1378 64.4119 96.0946 64.1384 96.1234 64.3111C96.1522 64.4839 96.1091 64.2248 96.1091 64.2104C96.0947 64.1096 96.0802 64.0089 96.0658 63.9081C96.037 63.6778 96.0083 63.4475 95.9939 63.2172C95.9651 62.8574 95.9363 62.4976 95.9219 62.1377C95.9075 61.5764 95.9219 61.0006 95.9075 60.4393C95.9075 59.734 95.8644 59.0431 95.7924 58.3378C95.7348 57.8053 95.6629 57.2727 95.5909 56.7402C95.5477 56.4235 95.5046 56.1069 95.4614 55.7758C95.447 55.7183 95.447 55.6607 95.4326 55.6031C95.3894 55.3296 95.4614 55.7758 95.4326 55.6031C95.4182 55.4448 95.3894 55.3008 95.375 55.1425C95.2455 54.1206 95.1304 53.0842 95.1016 52.0479C95.0872 51.5154 95.0871 50.9972 95.1303 50.4646C95.1447 50.2199 95.1591 49.9609 95.2023 49.7162C95.1447 50.0184 95.2311 49.5722 95.2311 49.5147C95.2599 49.3707 95.2743 49.2412 95.3031 49.0973C95.3894 48.6511 95.5189 48.2193 95.6629 47.8018C95.7204 47.6147 95.7924 47.4276 95.8644 47.2405C95.8931 47.1541 95.9219 47.0678 95.9651 46.9958C95.9795 46.9382 96.0083 46.8951 96.0227 46.8375C96.1234 46.6072 95.9795 46.9526 96.0227 46.8519C96.3681 46.089 96.7567 45.355 97.2172 44.6641C97.3468 44.477 97.5339 44.2754 97.649 44.0739C97.6346 44.0883 97.4907 44.2755 97.6059 44.1315C97.649 44.0739 97.6922 44.0308 97.7354 43.9732C97.8073 43.8868 97.8793 43.8005 97.9513 43.7141C98.2535 43.3687 98.5702 43.0376 98.9156 42.721C99.0883 42.5626 99.2754 42.4043 99.4625 42.246C99.6064 42.1308 99.4193 42.2891 99.4049 42.2891C99.4625 42.2604 99.5057 42.2028 99.5632 42.174C99.664 42.102 99.7647 42.0301 99.8511 41.9581C100.24 41.6846 100.643 41.4543 101.074 41.2384C101.477 41.0369 101.708 40.4468 101.564 40.015C101.405 39.54 101.017 39.2521 100.528 39.2234C100.024 39.1946 99.52 39.1514 99.0163 39.0938C98.9011 39.0794 98.786 39.065 98.6709 39.0506C98.6133 39.0506 98.5557 39.0218 98.4981 39.0218C98.786 39.0074 98.5989 39.0362 98.5126 39.0218C98.2535 38.9787 97.9944 38.9499 97.7498 38.9067C96.7711 38.734 95.8068 38.5181 94.8713 38.2446C94.3963 38.1007 93.9357 37.9567 93.4752 37.784C93.2593 37.6976 93.0434 37.6257 92.8131 37.5393C92.7843 37.5249 92.4821 37.4098 92.4821 37.4098C92.4245 37.381 92.3526 37.3522 92.295 37.3234C91.3883 36.9204 90.5248 36.4598 89.69 35.9272C89.2726 35.6538 88.8552 35.3803 88.4666 35.078C88.4235 35.0492 88.3946 35.0205 88.3514 34.9917C88.3946 35.0349 88.5961 35.1644 88.3514 34.9917C88.2651 34.9197 88.1644 34.8477 88.078 34.7758C87.8765 34.6174 87.6894 34.4447 87.5023 34.272C87.1425 33.941 86.7827 33.5955 86.4517 33.2357C86.1063 32.8614 85.804 32.4584 85.473 32.0842C85.6744 32.3145 85.4298 32.0266 85.3867 31.9547C85.3147 31.8539 85.2427 31.7675 85.1708 31.6668C85.0125 31.4509 84.8685 31.235 84.7246 31.0191C84.4367 30.5873 84.1777 30.1411 83.9186 29.6949C83.4149 28.8025 82.9687 27.8813 82.5513 26.9313C82.5369 26.8882 82.5081 26.845 82.4938 26.8018C82.4794 26.7586 82.4506 26.7154 82.4362 26.6722C82.4938 26.8162 82.5081 26.8306 82.4649 26.7298C82.4074 26.6003 82.3498 26.4563 82.2923 26.3268C82.1915 26.0677 82.0908 25.8087 81.99 25.5496C81.7885 25.017 81.587 24.47 81.3999 23.9375C81.0113 22.8292 80.6515 21.7209 80.2917 20.6126C80.119 20.08 79.5289 19.677 78.9676 19.8642C78.3919 20.0225 77.9889 20.5982 78.176 21.174C79.4713 25.2185 81.99 33.7257 81.99 33.7257L85.5162 39.3817L88.3514 43.7141C88.3514 43.7141 98.1671 41.2672 100.528 41.3968C100.34 40.7203 100.168 40.0582 99.9806 39.3817C96.7135 41.0081 88.078 43.2963 88.078 43.2963L91.3883 53.7607C91.3883 53.7607 93.2593 55.3872 93.3457 55.9917C93.3601 56.1357 93.3888 56.2652 93.4032 56.4091C93.4176 56.4667 93.4176 56.5243 93.432 56.5819C93.4752 56.8553 93.4033 56.4091 93.432 56.5962C93.4752 56.8697 93.504 57.1576 93.5471 57.4311C93.6479 58.2803 93.7486 59.1295 93.763 59.9787C93.7774 60.6264 93.7631 61.2741 93.7774 61.9218C93.8062 62.9438 93.9214 63.9657 94.0653 64.9876C94.7561 64.8005 95.447 64.599 96.1522 64.4119C95.044 60.4969 88.3514 41.1809 88.3514 41.1809L85.1708 38.2446C85.1708 38.2446 74.4628 48.1617 72.2175 48.4496C72.4046 49.126 72.5773 49.7881 72.7644 50.4646C76.305 48.5215 83.4724 45.5996 84.7246 41.8286C85.3723 39.8711 85.5162 39.3817 85.5162 39.3817C85.5162 39.3817 81.2848 30.6592 81.1984 28.3851C81.0977 25.7799 80.8242 23.1746 80.2917 20.627C80.1765 20.08 79.5001 19.7058 78.9676 19.8785C78.3487 20.0369 78.0609 20.5838 78.176 21.174Z" fill="#DFB545"></path></svg>