<svg xmlns="http://www.w3.org/2000/svg" width="76" height="76" viewBox="0 0 76 76" fill="none"><path d="M39.8391 0H36.1641V76H39.8391V0Z" fill="#36744F"></path><path d="M76 36.1625H0V39.8375H76V36.1625Z" fill="#36744F"></path><path d="M12.4189 9.82813L9.82031 12.4268L63.5599 66.1664L66.1585 63.5677L12.4189 9.82813Z" fill="#36744F"></path><path d="M63.5599 9.82752L9.82031 63.5671L12.4189 66.1658L66.1586 12.4261L63.5599 9.82752Z" fill="#36744F"></path><path d="M3.5116 21.9731L2.125 25.3766L72.5086 54.0514L73.8952 50.6479L3.5116 21.9731Z" fill="#36744F"></path><path d="M50.6475 2.13077L21.9727 72.5144L25.3761 73.901L54.0509 3.51737L50.6475 2.13077Z" fill="#36744F"></path><path d="M72.5912 22.1011L2.08594 50.4795L3.4582 53.8888L73.9634 25.5104L72.5912 22.1011Z" fill="#36744F"></path><path d="M25.4953 2.08892L22.0859 3.46082L50.4567 73.966L53.8661 72.5941L25.4953 2.08892Z" fill="#36744F"></path></svg>